<?xml version="1.0" encoding="UTF-8" standalone="no"?>
<!-- Created with Inkscape (http://www.inkscape.org/) -->

<svg
   width="1050.5612mm"
   height="761.89734mm"
   viewBox="0 0 1050.5611 761.89732"
   version="1.1"
   id="svg1"
   xml:space="preserve"
   xmlns="http://www.w3.org/2000/svg"
   xmlns:svg="http://www.w3.org/2000/svg"><defs
     id="defs1" /><g
     id="layer1"
     transform="translate(463.02,288.68662)"><g
       id="g6"
       transform="translate(2.3056272,9.2224994)"><path
         style="fill:#a1ba52"
         d="m 194.31038,463.81695 c -9.79841,-0.0454 -73.21903,-0.25771 -140.934731,-0.47178 -267.840309,-0.84674 -352.162089,-1.54694 -361.392629,-3.00095 -3.02295,-0.47618 -9.30627,-1.43571 -13.96294,-2.13229 -89.96394,-13.45742 -147.49354,-55.3937 -130.39583,-95.0522 6.73391,-15.61943 16.83969,-20.37101 53.31388,-25.06731 41.24833,-5.311 80.0717,-14.40275 113.30717,-26.53455 6.75374,-2.46529 6.7014,-2.6231 -3.2405,-9.77171 -47.05834,-33.83677 -76.13822,-71.64357 -99.11447,-128.85885 -6.47814,-16.1318 -6.58132,-16.34282 -8.35274,-17.08297 -1.68106,-0.70239 -11.26342,-1.1722 -24.29529,-1.19117 -29.95328,-0.0436 -33.24008,-0.56656 -38.89335,-6.18833 -5.08103,-5.05272 -4.89725,-3.70904 -5.40227,-39.49783 -0.52419,-37.146844 -0.2265,-349.72909 0.34201,-359.12779 1.00786,-16.66201 4.31604,-19.26814 26.84388,-21.14715 8.32928,-0.69473 9.06341,-0.73488 94.19167,-5.15149 41.03688,-2.12906 122.39626,-6.40654 180.79862,-9.50549 266.51043,-14.14162 246.865713,-13.40629 254.14357,-9.513 7.966554,4.26171 144.43153,103.74701 149.14027,108.7258 5.13873,5.43346 5.32295,7.20507 5.5863,53.72384 0.2098,37.060758 0.4479,50.97045 0.88457,51.677001 0.43738,0.7077 15.99049,-4.476414 19.89981,-6.632943 3.18915,-1.759261 2.17928,2.144944 16.99202,-65.691848 7.05758,-32.32106 8.34893,-39.02223 7.74484,-40.1904 -0.78189,-1.51201 -3.20421,-4.45003 -6.6971,-8.12288 -19.32768,-20.32347 -21.84634,-46.78182 -6.61725,-69.51377 18.23145,-27.21346 57.44918,-33.12639 81.46255,-12.28227 37.00927,32.12484 21.74129,88.17225 -26.60254,97.65559 -6.69332,1.31299 -5.81579,0.46957 -7.34206,7.05673 -9.15331,39.50424 -16.62276,74.33775 -16.84181,78.54118 l -0.0893,1.71277 1.79214,0.104552 c 0.98568,0.0575 6.95762,-0.299685 13.27098,-0.793751 34.01951,-2.662271 63.41938,0.04873 97.25211,8.967747 8.36133,2.204222 8.42546,2.205727 10.15688,0.238325 2.35509,-2.676085 2.934,-3.761396 54.13885,-101.497203 5.39469,-10.29696 5.22085,-8.43122 1.33551,-14.33397 -18.25668,-27.73622 -13.55469,-58.59448 11.84798,-77.75614 30.0908,-22.69799 75.37363,-6.92012 85.76479,29.88297 1.44395,5.11415 1.04483,26.71857 -0.58394,31.60826 -8.31498,24.96228 -31.36891,39.75045 -58.54612,37.55497 l -3.70417,-0.29924 -7.45805,14.23396 c -11.3509,21.66358 -43.27137,82.790518 -47.51883,90.997407 -4.5168,8.727296 -4.49942,7.481164 -0.14465,10.374379 58.94448,39.161398 94.20688,93.987365 101.53484,157.866353 2.80782,24.476261 -9.59363,45.886431 -33.49587,57.828091 -11.44677,5.71886 -19.36884,7.71367 -45.68871,11.50465 -29.20394,4.20638 -36.47103,6.37833 -47.37481,14.15911 -16.66596,11.89258 -22.80626,26.50325 -35.03801,83.37204 -6.18422,28.75214 -9.33742,41.53018 -13.79808,55.91528 -14.9364,48.16819 -38.66116,85.40885 -70.17883,110.15941 -5.89145,4.62651 -7.67086,6.26992 -7.24856,6.69456 0.62685,0.6303 10.79401,0.78882 63.71094,0.99334 l 55.91528,0.21611 2.75188,1.79046 c 14.19468,9.23553 12.15362,28.92278 -3.28104,31.64764 -6.03732,1.06584 -132.74285,1.70322 -239.8889,1.20675 z"
         id="path10" /><path
         style="fill:#6c6ad0"
         d="m 194.31038,463.81695 c -9.79841,-0.0454 -73.21903,-0.25771 -140.934731,-0.47178 -267.840309,-0.84674 -352.162089,-1.54694 -361.392629,-3.00095 -3.02295,-0.47618 -9.30627,-1.43571 -13.96294,-2.13229 -89.96394,-13.45742 -147.49354,-55.3937 -130.39583,-95.0522 6.73391,-15.61943 16.83969,-20.37101 53.31388,-25.06731 41.24833,-5.311 80.0717,-14.40275 113.30717,-26.53455 6.75374,-2.46529 6.7014,-2.6231 -3.2405,-9.77171 -47.05834,-33.83677 -76.13822,-71.64357 -99.11447,-128.85885 -6.47814,-16.1318 -6.58132,-16.34282 -8.35274,-17.08297 -1.68106,-0.70239 -11.26342,-1.1722 -24.29529,-1.19117 -29.95328,-0.0436 -33.24008,-0.56656 -38.89335,-6.18833 -5.08103,-5.05272 -4.89725,-3.70904 -5.40227,-39.49783 -0.52419,-37.146844 -0.2265,-349.72909 0.34201,-359.12779 1.00786,-16.66201 4.31604,-19.26814 26.84388,-21.14715 8.32928,-0.69473 9.06341,-0.73488 94.19167,-5.15149 41.03688,-2.12906 122.39626,-6.40654 180.79862,-9.50549 266.51043,-14.14162 246.865713,-13.40629 254.14357,-9.513 7.966554,4.26171 144.43153,103.74701 149.14027,108.7258 5.13873,5.43346 5.32295,7.20507 5.5863,53.72384 0.2098,37.060758 0.4479,50.97045 0.88457,51.677001 0.43738,0.7077 15.99049,-4.476414 19.89981,-6.632943 3.18915,-1.759261 2.17928,2.144944 16.99202,-65.691848 7.05758,-32.32106 8.34893,-39.02223 7.74484,-40.1904 -0.78189,-1.51201 -3.20421,-4.45003 -6.6971,-8.12288 -19.32768,-20.32347 -21.84634,-46.78182 -6.61725,-69.51377 18.23145,-27.21346 57.44918,-33.12639 81.46255,-12.28227 37.00927,32.12484 21.74129,88.17225 -26.60254,97.65559 -6.69332,1.31299 -5.81579,0.46957 -7.34206,7.05673 -9.15331,39.50424 -16.62276,74.33775 -16.84181,78.54118 l -0.0893,1.71277 1.79214,0.104552 c 0.98568,0.0575 6.95762,-0.299685 13.27098,-0.793751 34.01951,-2.662271 63.41938,0.04873 97.25211,8.967747 8.36133,2.204222 8.42546,2.205727 10.15688,0.238325 2.35509,-2.676085 2.934,-3.761396 54.13885,-101.497203 5.39469,-10.29696 5.22085,-8.43122 1.33551,-14.33397 -18.25668,-27.73622 -13.55469,-58.59448 11.84798,-77.75614 30.0908,-22.69799 75.37363,-6.92012 85.76479,29.88297 1.44395,5.11415 1.04483,26.71857 -0.58394,31.60826 -8.31498,24.96228 -31.36891,39.75045 -58.54612,37.55497 l -3.70417,-0.29924 -7.45805,14.23396 c -11.3509,21.66358 -43.27137,82.790518 -47.51883,90.997407 -4.5168,8.727296 -4.49942,7.481164 -0.14465,10.374379 58.94448,39.161398 94.20688,93.987365 101.53484,157.866353 2.80782,24.476261 -9.59363,45.886431 -33.49587,57.828091 -11.44677,5.71886 -19.36884,7.71367 -45.68871,11.50465 -29.20394,4.20638 -36.47103,6.37833 -47.37481,14.15911 -16.66596,11.89258 -22.80626,26.50325 -35.03801,83.37204 -6.18422,28.75214 -9.33742,41.53018 -13.79808,55.91528 -14.9364,48.16819 -38.66116,85.40885 -70.17883,110.15941 -5.89145,4.62651 -7.67086,6.26992 -7.24856,6.69456 0.62685,0.6303 10.79401,0.78882 63.71094,0.99334 l 55.91528,0.21611 2.75188,1.79046 c 14.19468,9.23553 12.15362,28.92278 -3.28104,31.64764 -6.03732,1.06584 -132.74285,1.70322 -239.8889,1.20675 z m -7.9375,-34.32835 c 71.77569,-3.46164 123.08708,-34.00262 153.54689,-91.39241 10.83588,-20.41606 17.45165,-41.50386 26.89406,-85.72501 12.64471,-59.21833 17.32324,-71.40321 33.6636,-87.67428 7.89904,-7.86554 14.27983,-12.47899 22.78573,-16.47457 5.44567,-2.55806 5.47257,-2.57266 5.44802,-2.95766 -0.011,-0.17288 -2.94789,-1.87747 -6.52639,-3.78798 -28.60812,-15.27351 -38.8274,-32.52688 -26.46456,-44.680514 8.19979,-8.061028 15.99338,-7.019827 24.86541,3.321944 17.11039,19.94489 58.69705,26.2031 93.76583,14.11044 19.35836,-6.67527 22.45587,-11.66645 19.35686,-31.190718 C 527.66532,44.965899 511.9219,14.693322 483.24781,-13.991257 407.2226,-90.044304 265.65884,-85.488057 197.79204,-4.8038285 175.57994,21.603285 164.93408,44.43003 151.80667,93.797564 131.26654,171.04168 110.14769,214.9236 73.766938,255.95283 9.8301287,328.05904 -70.076703,359.70058 -163.93547,350.07831 c -19.59952,-2.00931 -45.95739,-8.66312 -67.38056,-17.00963 -9.71269,-3.78407 -11.47601,-3.81344 -20.16286,-0.33581 -1.91029,0.76475 -8.47388,3.40508 -14.58575,5.86741 -43.44798,17.50412 -81.19547,27.17779 -130.17124,33.3594 -24.72722,3.12102 -26.2786,3.71018 -23.83948,9.0534 5.89959,12.92381 41.24988,30.35315 78.86905,38.88613 38.43689,8.71845 35.45964,8.59269 226.65973,9.57408 41.327919,0.21213 82.12667,0.42773 90.663893,0.47913 40.2073,0.24205 203.068967,-0.11722 210.255567,-0.46382 z M 372.90437,57.819836 C 359.999,54.194665 352.38526,40.595004 353.77423,23.649538 c 2.78559,-33.984427 44.97106,-36.527701 51.29068,-3.092208 4.33157,22.917217 -12.75444,42.713756 -32.16054,37.262506 z M -102.02297,318.51645 c 24.580434,-2.53951 47.824898,-8.50942 65.75384,-16.88766 3.043755,-1.42236 4.063898,-2.13524 3.649108,-2.55003 -0.09071,-0.0907 -3.801294,0.39276 -8.245739,1.07439 -108.665589,16.66563 -220.670289,-40.5797 -262.596669,-134.21253 -4.00612,-8.94675 -5.54833,-11.91997 -6.42671,-12.39006 -1.98681,-1.06331 -43.71393,-1.25993 -47.72134,-0.22486 l -1.76389,0.45558 0.0514,1.60359 c 0.0688,2.14619 1.93568,7.61142 5.22301,15.29045 33.75772,78.85626 108.07339,135.89683 190.51724,146.23042 19.32161,2.42179 46.76012,3.13972 61.55972,1.61071 z m -2.99861,-112.90043 c 21.987119,-1.15597 45.671259,-10.38344 65.969448,-25.70206 9.709508,-7.32756 26.182191,-25.50309 24.572561,-27.11272 -2.172992,-2.17299 -195.740539,-2.28689 -197.910979,-0.11646 -2.33149,2.33149 14.57165,20.46437 28.09067,30.13432 17.8041,12.73501 38.74236,20.6215 60.05191,22.61882 7.05131,0.66091 9.59489,0.68447 19.22639,0.1781 z m -230.62848,-176.069976 0.79375,-0.212717 V 17.739526 6.1457253 l -0.79375,-0.179435 c -0.43656,-0.098689 -1.98062,-0.418166 -3.43125,-0.7099483 -3.9579,-0.7961041 -6.10215,-2.0205878 -9.79602,-5.59407346 l -3.26509,-3.15867884 -0.007,-16.6169047 c -0.0137,-31.430769 -0.64446,-33.924654 -11.34709,-44.867025 -5.0202,-5.132658 -5.03038,-4.065036 0.0872,-9.149839 9.46286,-9.40221 10.30058,-12.272477 10.92867,-37.444861 0.67812,-27.17758 1.30979,-28.65327 13.56763,-31.69627 l 4.58612,-1.13851 -0.12707,-10.54214 c -0.0699,-5.79819 -0.23553,-11.17715 -0.36808,-11.95326 l -0.24101,-1.41112 -3.86526,0.10699 c -13.16345,0.36435 -21.89858,4.50466 -29.97402,14.20722 -6.79406,8.16298 -7.80329,13.08387 -8.13414,39.6608 -0.31685,25.45282 -1.18347,27.905967 -12.152,34.398572 -3.79989,2.249273 -4.0609,2.650079 -4.76424,7.316216 -1.34957,8.953332 -0.63802,11.899914 3.38397,14.013415 11.78905,6.194967 13.40782,10.368555 13.34415,34.404474 -0.0395,14.9042133 0.11788,17.9041529 1.31397,25.04926916 2.38715,14.26017584 14.3677,26.69556184 27.649,28.69867784 1.50018,0.226261 11.77219,0.231759 12.61181,0.0067 z M -26.502496,28.612187 C -4.8224092,22.910215 1.3259703,11.45405 2.0436901,-24.577407 2.5290227,-48.942404 2.6673674,-49.365273 12.806203,-57.474466 c 6.518776,-5.213815 6.605082,-5.37539 6.458436,-12.090847 -0.137332,-6.288948 -0.129186,-6.275826 -7.21708,-11.624668 -9.758,-7.363823 -10.4527245,-9.380678 -11.23701724,-32.622189 -0.92883597,-27.52486 -1.94887846,-32.93508 -7.52948816,-39.9358 -7.0921766,-8.89693 -16.8425306,-13.99788 -27.9965586,-14.64654 -6.305738,-0.36671 -6.482688,0.0171 -6.369685,13.81428 0.09608,11.7315 -0.335493,10.552 4.268882,11.66689 11.633124,2.81682 13.083261,6.13949 14.009537,32.09978 0.290766,8.14917 0.615067,15.372297 0.720668,16.051394 1.474871,9.484522 3.186852,12.973882 9.982513,20.346358 l 4.3707631,4.741754 -4.0370401,4.124695 c -9.672397,9.882411 -10.326696,12.278082 -11.050537,40.460807 -0.632149,24.61272084 -1.530606,26.4763235 -14.630172,30.3462837 -1.641505,0.4849443 -3.110228,1.0073897 -3.263828,1.1609898 -0.712435,0.7124348 -0.487359,19.5797095 0.251161,21.0538335 1.320093,2.634977 6.627749,3.068247 13.960747,1.139632 z M 537.64966,-216.06076 c 19.607,-6.7965 23.00908,-31.18817 6.0415,-43.31546 -11.16177,-7.97769 -28.37466,-3.2351 -34.7272,9.56821 -9.15467,18.45094 9.50033,40.39759 28.6857,33.74725 z m -206.99067,-1.64053 c 17.71687,-4.51321 23.58633,-27.30791 10.4808,-40.70333 -8.69446,-8.88678 -23.74161,-9.18276 -32.79057,-0.64499 -18.7513,17.69199 -2.56798,47.68569 22.30977,41.34832 z"
         id="path9" /><path
         style="fill:#4a4faa"
         d="m 150.21315,462.38891 c -7.27604,-0.0387 -78.951667,-0.24571 -159.2791698,-0.4601 -283.9911402,-0.75799 -289.7563002,-0.85526 -316.4416802,-5.33942 -87.72409,-14.74099 -141.64631,-54.28837 -126.10201,-92.48516 6.38683,-15.69427 15.01739,-19.63625 55.01729,-25.12894 43.89338,-6.02733 82.45863,-15.16123 111.125,-26.31915 9.50436,-3.69942 9.76253,-2.96849 -4.69399,-13.28933 -45.72924,-32.64717 -78.21369,-76.04471 -98.88628,-132.10697 -4.79889,-13.01416 -4.57824,-12.56825 -6.4864,-13.10884 -0.48507,-0.13742 -11.5182,-0.39129 -24.51806,-0.56415 -36.38784,-0.48385 -38.96371,-1.26916 -42.84098,-13.061 -1.76536,-5.36892 -2.42695,-321.09392 -0.81092,-386.98247 l 0.28121,-11.46527 1.25201,-2.65294 c 4.26068,-9.02815 -2.42078,-8.14162 103.67841,-13.75658 25.70868,-1.36054 76.50868,-4.05672 112.88889,-5.99151 305.73711,-16.25982 325.813134,-17.23531 330.993115,-16.08287 4.7995,1.06779 7.956838,3.25148 79.111065,54.71501 60.01567,43.40737 75.39354,55.0728 77.59233,58.86043 2.12469,3.65998 2.52248,11.91277 2.8506,59.14041 0.22425,32.275738 0.54466,42.862376 1.32074,43.638459 0.90862,0.908622 20.78689,-5.803066 23.03332,-7.776957 1.19123,-1.046715 24.49607,-101.744452 24.49607,-105.844932 0,-0.34536 -2.53381,-3.27443 -5.6307,-6.50906 -10.34719,-10.80737 -13.28082,-15.35394 -16.03009,-24.84354 -13.31189,-45.94851 34.58902,-85.75586 77.19061,-64.14811 41.03605,20.8137 38.52992,81.02517 -4.09429,98.36794 -3.54345,1.44175 -5.5645,2.01216 -14.16919,3.99903 -4.72028,1.08994 -4.51259,0.81666 -6.41147,8.43661 -5.71421,22.93046 -16.35131,71.0863 -17.26849,78.17722 -0.43463,3.360265 -0.35888,3.372173 13.93029,2.189893 31.2659,-2.586923 64.76578,0.07697 95.17936,7.568624 15.11352,3.722853 13.98149,3.717942 16.51915,0.07167 2.89011,-4.152704 53.91915,-101.074197 56.45846,-107.233797 1.60201,-3.88601 1.60118,-3.88991 -1.99685,-9.36483 -25.14626,-38.26373 -0.85417,-86.40026 43.60826,-86.41292 52.84393,-0.015 73.68102,69.59071 29.59135,98.84912 -10.20067,6.76928 -15.56624,8.2706 -30.47234,8.52636 -7.14063,0.12251 -9.40958,0.26931 -9.75225,0.63096 -0.24561,0.25922 -6.71379,12.45693 -14.37374,27.10603 -36.86086,70.493737 -44.00306,84.467468 -44.00306,86.092167 0,0.855764 2.04612,2.476846 11.32769,8.974583 47.45479,33.221657 81.526,83.610324 90.76799,134.238815 9.85192,53.969715 -10.56916,76.758505 -76.66177,85.550295 -55.85784,7.43033 -65.18428,18.38084 -81.87322,96.13027 -8.70812,40.56886 -13.46742,58.22877 -20.82092,77.25834 -15.6357,40.46242 -37.15972,70.62167 -66.14394,92.68026 -4.58416,3.48879 -7.16822,5.92587 -6.73897,6.35563 0.63579,0.63654 8.34239,0.78681 57.0098,1.11164 70.30746,0.46926 67.65867,0.28587 72.38414,5.01134 7.47644,7.47644 5.91749,20.00366 -3.0633,24.61572 -3.73434,1.91777 -5.60707,2.11052 -24.51806,2.52362 -12.34749,0.26973 -217.29957,0.35403 -263.52501,0.1084 z m 36.15973,-32.90031 c 71.77569,-3.46164 123.08708,-34.00262 153.54689,-91.39241 10.83588,-20.41606 17.45165,-41.50386 26.89406,-85.72501 12.64471,-59.21833 17.32324,-71.40321 33.6636,-87.67428 7.89904,-7.86554 14.27983,-12.47899 22.78573,-16.47457 5.44567,-2.55806 5.47257,-2.57266 5.44802,-2.95766 -0.011,-0.17288 -2.94789,-1.87747 -6.52639,-3.78798 -28.60812,-15.27351 -38.8274,-32.52688 -26.46456,-44.680514 8.19979,-8.061028 15.99338,-7.019827 24.86541,3.321944 17.11039,19.94489 58.69705,26.2031 93.76583,14.11044 19.35836,-6.67527 22.45587,-11.66645 19.35686,-31.190718 C 527.66532,44.965899 511.9219,14.693322 483.24781,-13.991257 407.2226,-90.044304 265.65884,-85.488057 197.79204,-4.8038285 175.57994,21.603285 164.93408,44.43003 151.80667,93.797564 131.26654,171.04168 110.14769,214.9236 73.766938,255.95283 9.8301287,328.05904 -70.076703,359.70058 -163.93547,350.07831 c -19.59952,-2.00931 -45.95739,-8.66312 -67.38056,-17.00963 -9.71269,-3.78407 -11.47601,-3.81344 -20.16286,-0.33581 -1.91029,0.76475 -8.47388,3.40508 -14.58575,5.86741 -43.44798,17.50412 -81.19547,27.17779 -130.17124,33.3594 -24.72722,3.12102 -26.2786,3.71018 -23.83948,9.0534 5.89959,12.92381 41.24988,30.35315 78.86905,38.88613 38.43689,8.71845 35.45964,8.59269 226.65973,9.57408 41.327919,0.21213 82.12667,0.42773 90.663893,0.47913 40.2073,0.24205 203.068967,-0.11722 210.255567,-0.46382 z M 372.90437,57.819836 C 359.999,54.194665 352.38526,40.595004 353.77423,23.649538 c 2.78559,-33.984427 44.97106,-36.527701 51.29068,-3.092208 4.33157,22.917217 -12.75444,42.713756 -32.16054,37.262506 z M -102.02297,318.51645 c 24.580434,-2.53951 47.824898,-8.50942 65.75384,-16.88766 3.043755,-1.42236 4.063898,-2.13524 3.649108,-2.55003 -0.09071,-0.0907 -3.801294,0.39276 -8.245739,1.07439 -108.665589,16.66563 -220.670289,-40.5797 -262.596669,-134.21253 -4.00612,-8.94675 -5.54833,-11.91997 -6.42671,-12.39006 -1.98681,-1.06331 -43.71393,-1.25993 -47.72134,-0.22486 l -1.76389,0.45558 0.0514,1.60359 c 0.0688,2.14619 1.93568,7.61142 5.22301,15.29045 33.75772,78.85626 108.07339,135.89683 190.51724,146.23042 19.32161,2.42179 46.76012,3.13972 61.55972,1.61071 z m -2.99861,-112.90043 c 21.987119,-1.15597 45.671259,-10.38344 65.969448,-25.70206 9.709508,-7.32756 26.182191,-25.50309 24.572561,-27.11272 -2.172992,-2.17299 -195.740539,-2.28689 -197.910979,-0.11646 -2.33149,2.33149 14.57165,20.46437 28.09067,30.13432 17.8041,12.73501 38.74236,20.6215 60.05191,22.61882 7.05131,0.66091 9.59489,0.68447 19.22639,0.1781 z m -248.70834,-85.39098 c 53.06967,-0.19155 58.60246,-0.26423 59.00208,-0.77504 0.34862,-0.44563 0.44097,-12.46899 0.44097,-57.411178 0,-105.741991 -0.46839,-306.700592 -0.71579,-307.100892 -0.18195,-0.2944 -1.61025,-0.2971 -5.49765,-0.0104 -5.04942,0.37239 -19.99542,1.14289 -58.52128,3.01691 -9.89542,0.48134 -25.45292,1.28583 -34.57222,1.78775 -9.11931,0.50193 -21.81931,1.02134 -28.22223,1.15426 l -11.64166,0.24167 -0.0885,179.872419 -0.0885,179.872421 10.67187,-0.21827 c 5.86953,-0.12005 37.02437,-0.31339 69.23299,-0.42964 z m 247.59994,-1.20631 c 0.44227,-0.41708 -0.21178,-372.06106 -0.65549,-372.46114 -0.20515,-0.18498 -1.82902,-0.19782 -3.88055,-0.0307 -3.41092,0.2779 -32.8496,1.67046 -66.32223,3.13731 -49.06554,2.15015 -83.86809,4.17441 -84.61574,4.92159 -0.69604,0.69562 -0.86044,29.80186 -1.13562,201.055637 l -0.2638,164.174453 78.28536,-0.25585 c 43.05695,-0.14072 78.42158,-0.38431 78.58807,-0.54132 z m 215.93008,0.36058 c 2.93191,-0.48012 2.83904,-0.28771 5.12861,-10.62502 10.24182,-46.241269 22.21551,-78.828265 39.45709,-107.3845072 13.63968,-22.5906278 28.7413,-39.2122818 52.09541,-57.3390168 7.19067,-5.581176 8.06387,-6.383908 8.42865,-7.748486 0.93293,-3.489884 0.87558,-99.53883 -0.0614,-102.83473 -0.42117,-1.48149 -0.31837,-1.40563 -50.79261,-37.48304 -67.867755,-48.50977 -67.659992,-48.36439 -68.260362,-47.76402 -0.84655,0.84655 -2.031588,368.81345 -1.194787,370.99412 0.24419,0.63635 11.598719,0.77432 15.199399,0.1847 z M 53.16579,118.08052 63.539264,117.84671 63.307717,-34.407033 C 63.008202,-231.35417 62.829367,-262.95627 62.012902,-263.2154 c -1.880498,-0.59685 -128.681473,5.76142 -134.447172,6.74167 l -1.279359,0.21752 -0.24526,91.06577 c -0.294579,109.37777 -0.131232,282.44954 0.267159,283.06509 0.315413,0.48734 106.708484,0.66 126.85752,0.20587 z m -124.261905,-355.6001 c -0.454035,-0.45403 -0.230552,-3.49499 0.313985,-4.27243 1.136212,-1.62217 3.328448,-0.46206 2.835829,1.50069 -0.383166,1.52665 -2.517101,3.40445 -3.149814,2.77174 z m 106.303708,-12.16764 c 0,-1.68007 9.162382,-10.65873 10.213749,-10.00895 0.909807,0.56229 -1.340032,3.24163 -6.600015,7.85998 -2.862724,2.51351 -3.613734,2.96011 -3.613734,2.14897 z m 502.442067,33.62646 c 19.607,-6.7965 23.00908,-31.18817 6.0415,-43.31546 -11.16177,-7.97769 -28.37466,-3.2351 -34.7272,9.56821 -9.15467,18.45094 9.50033,40.39759 28.6857,33.74725 z m -206.99067,-1.64053 c 17.71687,-4.51321 23.58633,-27.30791 10.4808,-40.70333 -8.69446,-8.88678 -23.74161,-9.18276 -32.79057,-0.64499 -18.7513,17.69199 -2.56798,47.68569 22.30977,41.34832 z"
         id="path8" /><path
         style="fill:#3b429a"
         d="m -12.24102,461.52963 c -304.42382,-0.76195 -297.60257,-0.53365 -341.94572,-11.44464 -71.97,-17.70879 -112.58338,-55.12765 -95.86547,-88.32499 6.66282,-13.23059 15.07504,-16.93151 49.02808,-21.56969 47.05742,-6.42831 91.11283,-16.82445 117.79508,-27.79714 7.73047,-3.17904 7.67982,-3.31173 -4.53143,-11.86977 -17.64433,-12.36574 -29.85629,-22.89293 -42.29596,-36.46082 -25.43174,-27.73828 -44.48768,-59.03108 -57.71109,-94.77057 -4.45074,-12.0292 -5.33468,-14.2568 -5.95533,-15.00802 -0.73034,-0.88397 -1.84837,-0.942 -27.21123,-1.41229 -37.66085,-0.69832 -40.58188,-1.86837 -41.98085,-16.81576 -1.0946,-11.69542 -1.4184,-334.63278 -0.37894,-377.92679 l 0.36845,-15.34617 1.23758,-2.97886 c 3.73939,-9.00077 -6.28404,-7.79734 120.65793,-14.48636 36.86528,-1.94256 98.0634,-5.19425 135.99584,-7.22598 161.086899,-8.62809 257.701815,-13.60057 281.516675,-14.48882 11.485507,-0.42839 8.154283,-2.41441 65.793055,39.22478 83.76049,60.50993 96.70307,70.218 99.12682,74.35382 2.15059,3.66971 2.50671,9.94528 2.83486,49.95627 0.39292,47.907473 0.63424,53.622227 2.26437,53.622227 1.91528,0 18.04702,-5.446766 21.79548,-7.359087 2.04112,-1.041302 2.0966,-1.162423 3.99195,-8.716344 2.47032,-9.845466 22.21014,-97.591736 22.21014,-98.727206 0,-0.11425 -2.25134,-2.54821 -5.00298,-5.4088 -15.9494,-16.58093 -20.01414,-26.61294 -18.6502,-46.02973 2.87801,-40.97051 51.26057,-63.276 84.9657,-39.17118 38.25943,27.36192 25.24707,87.23962 -20.94778,96.3933 -5.42766,1.07551 -7.7911,1.76495 -8.41549,2.45489 -1.65088,1.82421 -18.58806,76.53953 -19.48978,85.975689 -0.33427,3.497936 -0.17667,3.545442 9.33935,2.815285 40.41834,-3.101264 67.25814,-1.148864 101.28596,7.367819 14.17893,3.548785 13.4644,3.482574 14.9468,1.385012 3.16258,-4.474956 56.89974,-107.015555 58.26557,-111.181635 0.76845,-2.34396 0.71423,-2.49194 -2.82361,-7.70677 -25.35674,-37.37627 -0.92109,-85.78697 43.24036,-85.66565 52.41627,0.144 72.85786,68.93923 29.10417,97.94873 -10.01951,6.64312 -14.29793,7.83277 -29.52648,8.21002 -8.73639,0.21642 -10.19142,0.32994 -10.61795,0.82836 -0.27184,0.31766 -3.55668,6.45132 -7.29964,13.63035 -3.74297,7.17903 -8.98817,17.18028 -11.65601,22.225 -17.80848,33.67475 -39.50132,76.260595 -39.50132,77.546197 0,1.303815 2.62752,3.513281 11.66673,9.810508 47.35285,32.988687 81.49126,83.97591 90.43567,135.069693 9.25812,52.885782 -11.03851,75.061242 -76.52601,83.609922 -56.01135,7.31167 -65.3901,18.5348 -82.69096,98.95259 -6.96664,32.38227 -9.13788,41.15304 -14.18338,57.29386 -14.81793,47.40338 -39.43227,85.30005 -70.77698,108.96949 -7.13922,5.39107 -9.43129,7.77589 -8.00098,8.32475 1.60369,0.61539 19.90647,0.97811 64.35091,1.27527 65.06167,0.435 63.5807,0.25929 67.50524,8.00938 5.52453,10.90971 -0.14499,21.04537 -12.29551,21.98128 -13.66046,1.05222 -184.68883,1.30622 -443.44169,0.65858 z m 195.79167,-31.18716 c 79.09935,-1.80153 137.39384,-40.60459 165.34733,-110.06156 7.44352,-18.49517 11.4065,-32.97921 19.49774,-71.26112 7.88593,-37.31052 11.61251,-50.51718 17.81851,-63.14722 7.90919,-16.09624 20.36751,-28.40782 37.24287,-36.8042 8.29653,-4.12796 8.46973,-3.34262 -1.95782,-8.87741 -26.79333,-14.22152 -37.01077,-31.90051 -24.99295,-43.244676 6.43341,-6.072786 14.46825,-5.760753 20.77323,0.806729 9.66574,10.068167 11.95419,11.917527 18.9607,15.322627 24.50151,11.90751 64.63515,10.5688 89.25978,-2.97738 10.36639,-5.70263 11.70995,-9.53221 9.24247,-26.344195 C 523.4891,7.079643 460.9881,-53.561484 380.40066,-65.99496 298.39539,-78.647188 224.84407,-49.251926 183.75255,12.596735 169.24497,34.432727 160.99841,54.934701 150.38144,95.561453 132.46344,164.1262 113.28839,205.88905 81.623103,245.31563 1.2316264,345.41138 -120.19615,376.96249 -240.09432,328.90886 c -2.33021,-0.93392 -1.66421,-1.09823 -10.87432,2.68292 -57.04618,23.41999 -89.65065,32.27705 -145.27101,39.4631 -25.65182,3.31417 -27.62816,4.14953 -24.62813,10.40979 9.64392,20.12427 76.93672,44.3093 131.57746,47.28893 26.6026,1.45068 420.75584,2.77514 472.84097,1.58887 z M 377.75483,57.408108 C 361.34156,55.764947 351.92638,40.591301 354.83515,20.47041 c 3.50241,-24.227347 33.1749,-31.273731 45.19304,-10.732078 12.67058,21.656826 -0.50217,49.849329 -22.27336,47.669776 z m -479.7778,261.137372 c 20.062589,-2.07016 39.303574,-6.44043 55.562504,-12.62011 10.318254,-3.92176 16.901871,-7.4975 12.611806,-6.84981 -0.727604,0.10985 -4.418542,0.67289 -8.202083,1.25121 -108.162407,16.53279 -220.417677,-41.66632 -262.069787,-135.87092 -3.18082,-7.19404 -4.88781,-10.4339 -5.73672,-10.88822 -2.4804,-1.32748 -46.48691,-1.31275 -48.97042,0.0164 -3.47775,1.86124 12.23141,35.94988 26.12595,56.69292 39.2396,58.58045 101.70272,98.03722 168.76625,106.60642 18.88586,2.41319 47.25315,3.17475 61.9125,1.66212 z m 37.923615,-47.10895 c 9.5357,-0.50871 9.361149,-1.12837 -0.247836,-0.87981 -8.503448,0.21995 -11.217443,0.0383 -11.217443,-0.75068 0,-0.77652 1.140468,-1.16961 4.9971,-1.72238 11.841737,-1.69724 40.708755,-11.23584 55.622809,-18.37956 31.934225,-15.29627 68.084624,-50.77055 88.056219,-86.40931 1.522237,-2.71639 3.472942,-5.93925 4.334902,-7.1619 3.074982,-4.36175 2.589481,-4.48982 -16.838802,-4.44197 -14.386965,0.0354 -36.135172,0.64361 -37.457085,1.04745 -0.325493,0.0994 -1.955328,2.54166 -3.621856,5.42716 -22.1415163,38.33675 -59.92415,66.31417 -100.797068,74.63857 -66.079535,13.45811 -125.702325,-12.24527 -162.534045,-70.06843 -4.50361,-7.07036 -5.50293,-8.26571 -7.1465,-8.54839 -4.16115,-0.71569 -19.10294,-0.5021 -21.20115,0.30306 -1.61797,0.62087 1.64145,8.46518 8.12919,19.56417 31.35685,53.64416 105.8985,95.57579 173.286841,97.4784 8.512504,0.24033 21.182462,0.19449 26.634724,-0.0964 z m 26.699432,-3.00462 c 8.790174,-1.63276 17.549685,-4.06628 14.636671,-4.06628 -2.10393,0 -20.559957,4.07637 -20.892555,4.61453 -0.32144,0.5201 1.241873,0.38309 6.255884,-0.54825 z m -67.621657,-62.81589 c 21.987119,-1.15597 45.671259,-10.38344 65.969448,-25.70206 9.709508,-7.32756 26.182191,-25.50309 24.572561,-27.11272 -2.172992,-2.17299 -195.740539,-2.28689 -197.910979,-0.11646 -2.33149,2.33149 14.57165,20.46437 28.09067,30.13432 17.8041,12.73501 38.74236,20.6215 60.05191,22.61882 7.05131,0.66091 9.59489,0.68447 19.22639,0.1781 z m -269.34584,-84.8368 c 20.46993,-0.17751 46.77716,-0.32819 58.4605,-0.33484 20.2982,-0.0115 21.25797,-0.0411 21.59163,-0.66454 0.9075,-1.69568 0.67937,-364.66829 -0.22977,-365.57743 -0.25796,-0.25796 -1.90249,-0.25259 -5.43569,0.0177 -5.1143,0.39132 -24.82547,1.41451 -58.1589,3.01899 -9.99243,0.48098 -25.47055,1.27793 -34.39583,1.77101 -8.92528,0.49307 -21.67093,1.04987 -28.32367,1.23732 -7.08673,0.19969 -12.38274,0.49435 -12.78854,0.71153 -0.68713,0.36773 -0.69194,1.80284 -0.60411,180.170666 l 0.0885,179.799984 0.88194,0.27294 c 0.48507,0.15011 5.56507,0.18889 11.28889,0.0862 5.72382,-0.10273 27.15507,-0.33201 47.62501,-0.50953 z m 266.52362,-1.01276 2.46944,-0.21612 -0.13888,-177.447226 c -0.0764,-97.595974 -0.23514,-181.654104 -0.35278,-186.795844 l -0.21389,-9.34861 -3.88056,0.0657 c -2.1343,0.0362 -14.27868,0.55123 -26.9875,1.14459 -12.70882,0.59336 -30.40945,1.39878 -39.33472,1.78982 -53.14397,2.32839 -84.99326,4.23414 -85.90128,5.14005 -0.86449,0.86248 -2.14557,363.55815 -1.29198,365.78256 0.23689,0.61731 148.51635,0.50779 155.63215,-0.11496 z m 219.66852,-0.37907 c 1.24948,-0.60439 1.36016,-0.94159 3.47803,-10.59677 17.78847,-81.095941 43.29881,-127.033603 91.35485,-164.506965 8.23132,-6.418659 8.06958,-6.272606 8.48859,-7.665087 1.58849,-5.278933 1.04361,-102.616018 -0.58476,-104.462328 -1.69637,-1.9234 -111.9631,-80.81612 -117.023712,-83.72715 -2.513425,-1.4458 -2.422207,-1.88274 -2.776061,13.29741 -0.358201,15.3666 -0.832472,356.99027 -0.496819,357.86497 0.2859,0.74504 15.974692,0.56271 17.559882,-0.20408 z m -48.109114,-0.8875 c 0.273036,-0.27338 0.07046,-270.94924 -0.253335,-338.49817 l -0.208843,-43.56806 -8.819445,0.0532 c -16.023302,0.0966 -120.030949,5.34009 -127.176394,6.41158 l -1.5875,0.23805 -0.266207,102.12917 c -0.46013,176.52713 -0.242454,272.63508 0.618984,273.29341 0.74685,0.57075 137.122145,0.51219 137.69274,-0.0591 z M -70.743046,-238.49235 c -0.550496,-1.43457 0.849179,-4.08826 1.75835,-3.33371 0.746295,0.61937 0.562497,1.61108 -0.523942,2.82701 -0.864683,0.96775 -1.03125,1.03613 -1.234408,0.5067 z m 111.250095,-16.63159 c 3.304744,-3.34017 4.949371,-4.57909 3.412357,-2.57058 -1.015094,1.32648 -5.684803,5.59346 -6.121392,5.59346 -0.154984,0 1.064082,-1.3603 2.709035,-3.02288 z m 497.142611,39.06318 c 19.60895,-6.79717 23.07497,-31.23836 6.13221,-43.24221 -11.20881,-7.94138 -28.43036,-3.40369 -34.69663,9.14219 -9.33699,18.69384 9.19302,40.81485 28.56442,34.10002 z m -205.97691,-1.94989 c 25.41125,-8.06957 20.53112,-45.51015 -6.12903,-47.02223 -8.34686,-0.47341 -12.92199,1.37127 -18.75348,7.56134 -17.03645,18.08401 1.18766,46.98541 24.88251,39.46089 z"
         id="path7" /><path
         style="fill:#27325d"
         d="m -109.4313,460.84837 c -175.73045,-0.45068 -190.02174,-0.83105 -219.07501,-5.83082 -56.2811,-9.6854 -100.31659,-30.62392 -117.44252,-55.84296 -10.0452,-14.79222 -9.20614,-33.86494 1.96902,-44.75807 8.36831,-8.15713 13.37132,-9.77584 41.74294,-13.50581 43.10518,-5.66698 79.53457,-13.93806 112.53612,-25.55068 15.91198,-5.59912 15.91194,-5.59886 2.29305,-15.10319 -47.79827,-33.35736 -79.54828,-75.83417 -101.77723,-136.16283 -2.61934,-7.10883 -4.18778,-10.89994 -4.55474,-11.00942 -0.30784,-0.0918 -8.57657,-0.33351 -18.37498,-0.53705 -40.22709,-0.83566 -41.71621,-1.01684 -45.89771,-5.58433 -5.5918,-6.10798 -5.34988,4.27137 -5.15312,-221.087875 0.17475,-200.143435 -0.20308,-187.402105 5.66859,-191.158165 4.69282,-3.00196 4.57499,-2.99222 90.18502,-7.45734 52.28745,-2.72713 100.75787,-5.30114 172.68473,-9.17039 113.247845,-6.09208 253.477843,-13.38781 271.81529,-14.14171 10.398774,-0.42753 7.215734,-2.41871 77.7875,48.66068 77.97814,56.44007 83.97132,60.96781 85.86782,64.87159 1.84946,3.80694 2.19562,12.26533 2.86963,70.11894 0.2091,17.947575 0.45401,32.8531 0.54424,33.123393 0.62823,1.881725 23.87455,-5.386645 26.20364,-8.193025 1.03627,-1.248632 6.45009,-24.375188 18.43003,-78.728698 7.0394,-31.9381 7.02948,-26.97272 0.0688,-34.43884 -15.29237,-16.40288 -17.21687,-20.99906 -17.19078,-41.05589 0.0824,-63.36369 94.42849,-71.50898 105.16569,-9.07938 5.12023,29.77067 -13.74995,56.78753 -43.52818,62.32025 -8.01867,1.48985 -7.45895,0.91989 -9.75261,9.93093 -6.78934,26.6731 -17.16025,74.98928 -17.16025,79.946468 0,2.790508 1.14701,2.911155 15.52222,1.632681 32.62108,-2.901188 65.52444,-0.0034 99.20882,8.737362 9.79108,2.540682 9.71751,2.530244 10.95777,1.554658 1.10667,-0.870513 -0.71373,2.531478 29.35247,-54.854069 13.72379,-26.19375 26.37526,-50.3111 28.11438,-53.59411 l 3.16205,-5.9691 -1.85736,-2.67395 c -4.64264,-6.6838 -5.80731,-8.56607 -7.54814,-12.19896 -21.85946,-45.61766 26.32525,-93.54139 71.17757,-70.79205 39.08148,19.82232 38.8515,74.91105 -0.39626,94.92075 -7.88481,4.01992 -11.21603,4.59149 -26.88814,4.61349 -8.00908,0.0112 -5.16343,-3.49396 -19.9122,24.52726 -27.57253,52.38508 -46.02373,88.639266 -46.02373,90.430595 0,1.586537 2.14986,3.379582 13.40555,11.180589 42.34789,29.350146 74.27787,74.978483 86.39606,123.461047 14.32274,57.302509 -5.66098,84.157069 -68.75717,92.397399 -35.84132,4.68085 -49.59531,10.01761 -61.65484,23.92303 -11.50062,13.26095 -16.03802,26.55799 -27.78038,81.41152 -2.05599,9.60438 -4.60115,21.10093 -5.65592,25.54789 -14.52821,61.2518 -40.27713,106.08409 -77.42507,134.80729 -7.39941,5.72131 -10.21033,8.43616 -9.48533,9.16116 1.04454,1.04453 19.76636,1.5754 80.9307,2.29483 48.87533,0.57488 48.61702,0.53546 52.1161,7.95347 4.49176,9.52249 -0.9264,19.42222 -11.09848,20.27849 -12.21949,1.02862 -275.56259,1.35572 -541.78569,0.67295 z m 324.20279,-31.84538 c 44.20588,-9.34182 69.26586,-21.85647 94.74915,-47.31656 31.25014,-31.2217 44.29985,-59.83172 59.0642,-129.49164 11.85805,-55.94761 16.1473,-67.78885 30.28162,-83.59773 8.39858,-9.3936 16.38128,-15.13443 27.72866,-19.94133 6.78296,-2.87334 6.77989,-2.88145 -3.15557,-8.32788 -16.56847,-9.08254 -26.53957,-17.70771 -29.31714,-25.35984 -4.45707,-12.27908 1.96164,-21.602315 14.40562,-20.924294 3.95716,0.215609 4.24203,0.404909 11.45889,7.614564 15.50543,15.48998 28.31955,20.00994 56.72208,20.00775 22.16862,-0.002 34.68478,-2.81001 49.82407,-11.17924 10.66047,-5.89327 11.85198,-10.39317 8.36055,-31.574623 C 522.5788,4.2019843 455.94792,-57.633826 377.22566,-67.409269 285.27398,-78.827493 211.4215,-43.655557 172.43553,30.121173 163.9079,46.258788 158.85951,60.680143 149.1568,96.619787 126.72142,179.72223 106.27381,219.37629 61.89297,265.85049 4.7998431,325.63661 -65.53226,353.85717 -146.3804,349.4196 c -33.09735,-1.81664 -57.05461,-7.16444 -89.76751,-20.03813 l -5.89022,-2.31801 -12.27784,4.95412 c -56.15699,22.65943 -87.06702,31.03364 -139.63062,37.82904 -29.12794,3.76565 -31.08011,4.60126 -27.48885,11.76639 10.03494,20.02123 64.52961,40.83532 124.32635,47.4861 17.86279,1.98675 17.54531,1.98461 291.5708481,1.96732 L 205.0701,431.05313 Z M 374.60706,55.861837 C 351.94342,53.544395 347.89671,11.929578 369.24416,0.71181402 389.34551,-9.8511508 410.4582,14.152646 402.40309,38.411451 397.95026,51.821646 389.14665,57.348564 374.60706,55.861837 Z M -101.14102,318.55501 c 24.689685,-2.71435 49.965245,-9.3749 65.849631,-17.35252 4.874423,-2.44808 4.035195,-2.59703 -6.120201,-1.08624 -63.39031,9.43038 -127.91447,-5.33916 -182.84888,-41.85403 -36.51641,-24.27242 -62.8673,-55.60651 -80.90269,-96.20215 -3.34913,-7.53853 -4.02064,-8.52938 -6.06881,-8.95498 -2.61969,-0.54435 -44.66626,-0.48481 -46.48487,0.0658 -2.86102,0.86626 -2.2588,3.94033 3.36475,17.17545 33.37728,78.55401 107.75922,135.958 189.88745,146.54494 19.04898,2.45555 48.97037,3.24168 63.32362,1.6637 z m 46.743054,-45.18189 c 48.5534714,-5.04991 90.816993,-27.22584 121.175566,-63.58157 15.325814,-18.35333 36.37665,-56.80374 32.015209,-58.47738 -2.603825,-0.99918 -74.679557,-1.96982 -75.577277,-1.0178 -0.337726,0.35816 -2.178277,3.11182 -4.090112,6.11925 -31.021137,48.79811 -70.360266,74.06952 -120.79561,77.59895 -60.97745,4.26717 -110.98245,-21.92965 -142.73527,-74.77673 l -3.92134,-6.52638 h -11.07378 c -17.92377,0 -17.27346,-0.54051 -12.09675,10.05416 30.16077,61.72724 97.17163,102.77452 181.645196,111.26615 3.716387,0.37358 30.272989,-0.11977 35.454168,-0.65865 z m -52.918194,-67.58354 c 29.674139,-1.71862 57.614138,-14.26646 78.890812,-35.42983 9.006472,-8.95851 15.002964,-16.50133 13.953094,-17.55119 -2.191166,-2.19117 -195.725856,-2.31621 -197.914196,-0.12787 -2.33557,2.33557 14.55336,20.45831 28.08657,30.13841 19.63919,14.04762 42.38487,21.94051 66.5783,23.10307 1.16417,0.0559 2.59292,0.12942 3.175,0.16329 0.58208,0.0339 3.83577,-0.0993 7.23042,-0.29588 z m -219.24987,-83.58544 c 32.72957,-0.36362 31.7717,-0.30224 32.58323,-2.08784 0.64849,-1.42687 0.80112,-366.3144 0.1535,-366.96202 -0.50633,-0.50633 -93.63393,3.87453 -117.4034,5.52283 -17.22629,1.19456 -22.74473,1.76121 -23.38513,2.40127 -1.48144,1.48066 -2.08001,355.85639 -0.60712,359.43827 0.7833,1.90487 37.61118,2.47681 108.65892,1.68749 z m 221.41301,-1.62923 c 0.84587,-0.23974 1.10605,-66.011269 0.91952,-232.4468 -0.15249,-136.07121 -0.20094,-141.17716 -1.35285,-142.56512 -0.7619,-0.91804 -8.25562,-0.67451 -88.33523,2.87069 -62.8607,2.78291 -67.77753,3.04476 -69.50509,3.70158 l -0.87408,0.33233 V -63.151041 121.23033 l 79.28681,-0.24635 c 43.60774,-0.1355 79.54516,-0.31958 79.86092,-0.40907 z m 153.237003,-0.12663 c 15.156059,-0.44673 15.630683,-0.49695 16.089061,-1.70258 1.566538,-4.1203 1.856775,-361.2017 0.307865,-378.76931 -0.483831,-5.48757 -0.09561,-5.41104 -22.394149,-4.41452 -84.775927,3.78863 -115.736464,5.68484 -117.231569,7.17994 -1.494944,1.49495 -1.58579,375.68412 -0.09165,377.48445 0.750836,0.9047 94.4371,1.07337 123.320438,0.22202 z m 63.891287,-0.81179 c 1.40715,-0.74671 1.58143,-1.23234 3.32269,-9.25837 17.78459,-81.974853 43.46569,-128.552031 91.35964,-165.69667 3.39549,-2.633404 6.7848,-5.323656 7.53181,-5.978337 l 1.35819,-1.190329 0.28965,-5.642335 c 0.8651,-16.852254 0.59451,-95.431189 -0.33954,-98.599289 -0.5005,-1.69758 -1.38641,-2.3669 -33.00539,-24.93613 -14.94014,-10.66408 -37.48264,-26.76979 -50.09445,-35.79045 -34.510744,-24.68401 -36.559816,-26.06347 -37.193095,-25.0388 -1.31762,2.13195 -2.303411,371.18378 -0.995096,372.53542 0.710092,0.7336 16.289261,0.3787 17.765591,-0.40471 z m 420.8488,-334.36109 c 23.10064,-4.09163 29.78224,-30.88638 11.1183,-44.58697 -8.78865,-6.45146 -22.51553,-4.96145 -30.72087,3.33466 -13.13026,13.27551 -6.14538,35.6895 12.7,40.75341 3.52287,0.94662 4.12792,0.99035 6.90257,0.4989 z m -203.22341,-2.62315 c 16.38977,-3.39964 24.10368,-23.01947 14.66358,-37.29587 -12.94252,-19.57317 -43.89836,-10.44941 -43.93616,12.9495 -0.0266,16.49049 13.38184,27.64249 29.27258,24.34637 z"
         id="path6" /></g></g></svg>
